# xmcd
#
# Track frame offsets: 
#        150
#        15901
#        33697
#        45870
#        64412
#        80911
#        95212
#        109989
#        126294
#        141613
#        159440
#        174207
#        188431
#        206452
#        223189
#
# Disc length: 3202 seconds
#
# Revision: 0
# Processed by: cddbd v1.5.2PL0 Copyright (c) Steve Scherf et al.
# Submitted via: ExactAudioCopyFreeDBPlugin 1.0
#
DISCID=d70c800f
DTITLE=Engelbert Humperdinck - A Taste of Country
DYEAR=2009
DGENRE=Country
TTITLE0=I Can See Clearly Now
TTITLE1=The Best Of My Love
TTITLE2=I'm On Fire
TTITLE3=We've Got Tonight
TTITLE4=Behind Closed Doors
TTITLE5=Help Me Make It
TTITLE6=Can't Hold On To Love
TTITLE7=Desperado
TTITLE8=Everybody's Talking
TTITLE9=Look What You've Done To Me
TTITLE10=Laughter In The Rain
TTITLE11=Who'll Stop The Rain
TTITLE12=Easy
TTITLE13=Sunshine On My Shoulders
TTITLE14=Totally Amazing
EXTD=
EXTT0=
EXTT1=
EXTT2=
EXTT3=
EXTT4=
EXTT5=
EXTT6=
EXTT7=
EXTT8=
EXTT9=
EXTT10=
EXTT11=
EXTT12=
EXTT13=
EXTT14=
PLAYORDER=
